<svg xmlns="http://www.w3.org/2000/svg" xmlns:xlink="http://www.w3.org/1999/xlink" viewBox="0 0 245.58 43"><defs><style>.cls-1{fill:#111;fill-rule:evenodd}</style><linearGradient id="logo-gradient-1" y1="21.5" x2="42.96" y2="21.5" gradientUnits="userSpaceOnUse"><stop offset="0" stop-color="#25bdcf"/><stop offset="1" stop-color="#9c6"/></linearGradient><linearGradient id="logo-gradient-2" x1="46.47" y1="25.27" x2="52.46" y2="25.27" xlink:href="#logo-gradient-1"/><linearGradient id="logo-gradient-3" x1="56.33" y1="29.77" x2="59.6" y2="29.77" xlink:href="#logo-gradient-1"/></defs><g id="logo-sharesl"><path class="cls-1" d="M175.3 25.89a2.84 2.84 0 0 0-1-.7 3.05 3.05 0 0 0-1.26-.26 2.56 2.56 0 0 0-1.92.81v-4.42H169v10h2.17v-.72a2.31 2.31 0 0 0 1.9.87 2.83 2.83 0 0 0 1.23-.26 3.09 3.09 0 0 0 1.64-1.74 3.44 3.44 0 0 0 .24-1.29 3.52 3.52 0 0 0-.23-1.26 3.07 3.07 0 0 0-.65-1.03zm-1.52 2.86a1.71 1.71 0 0 1-.3.44 1.32 1.32 0 0 1-.44.3 1.41 1.41 0 0 1-.54.11 1.46 1.46 0 0 1-.55-.11 1.77 1.77 0 0 1-.45-.3 1.32 1.32 0 0 1-.3-.44 1.41 1.41 0 0 1-.11-.54 1.3 1.3 0 0 1 .12-.55 1.37 1.37 0 0 1 .3-.45 1.23 1.23 0 0 1 .44-.3 1.33 1.33 0 0 1 .54-.11 1.26 1.26 0 0 1 .55.12 1.49 1.49 0 0 1 .44.3 1.37 1.37 0 0 1 .3.45 1.5 1.5 0 0 1 .11.55 1.4 1.4 0 0 1-.11.53zm7-.47l-1.64-3.16h-2.52l3 5.32-2.1 3.91H180l4.95-9.23h-2.5zM194 25.76l-.58-.18a3.26 3.26 0 0 1-.53-.2 1.09 1.09 0 0 1-.38-.27.56.56 0 0 1-.14-.39.66.66 0 0 1 .29-.57 1.22 1.22 0 0 1 .74-.21 2 2 0 0 1 .74.15 2.71 2.71 0 0 1 .77.46l.94-1.84a6 6 0 0 0-1.41-.54A5.35 5.35 0 0 0 193 22a3.58 3.58 0 0 0-1.3.22 2.74 2.74 0 0 0-1 .6 2.8 2.8 0 0 0-.62.94 3.16 3.16 0 0 0-.18 1.24 2.62 2.62 0 0 0 .21 1.11 2.09 2.09 0 0 0 .55.72 2.77 2.77 0 0 0 .78.46 9.44 9.44 0 0 0 .89.32l.66.24a1.81 1.81 0 0 1 .44.24.76.76 0 0 1 .24.27 1 1 0 0 1 .07.36.84.84 0 0 1-.28.6 1.26 1.26 0 0 1-.86.26 2.52 2.52 0 0 1-1-.23 4.11 4.11 0 0 1-1.05-.69l-1 1.89a5.42 5.42 0 0 0 3.18 1 4.56 4.56 0 0 0 1.48-.22 3.35 3.35 0 0 0 1.1-.62 2.69 2.69 0 0 0 .69-1 3.4 3.4 0 0 0 .23-1.26 2.53 2.53 0 0 0-.53-1.67 3.67 3.67 0 0 0-1.7-1.02zm9.44 0H200v-3.53h-2.35v9.05H200v-3.73h3.39v3.73h2.36v-9h-2.36zm6.83-3.49l-3.44 9.05h2.51l.54-1.57h3.36l.54 1.57h2.5l-3.44-9zm.23 5.69l1.06-3 1 3zm13-1.22A2.65 2.65 0 0 0 224 25a3.14 3.14 0 0 0-.18-1.08 2.72 2.72 0 0 0-.55-.89 2.64 2.64 0 0 0-.93-.61 3.8 3.8 0 0 0-1.32-.22h-3.66v9.05h2.35V27.8l2.24 3.48h2.93L222 27.57a2.54 2.54 0 0 0 1.46-.87zm-2.33-.74a1.73 1.73 0 0 1-1.07.29h-.44V24h.44a1.73 1.73 0 0 1 1.07.29 1.12 1.12 0 0 1 0 1.66zm4.64 5.29H231v-2h-2.79v-1.56h2.64v-2h-2.64v-1.51H231v-2h-5.15zm10.9-5.52l-.58-.18a3.26 3.26 0 0 1-.53-.2 1.09 1.09 0 0 1-.38-.27.56.56 0 0 1-.14-.39.66.66 0 0 1 .29-.57 1.22 1.22 0 0 1 .74-.21 2 2 0 0 1 .74.15 2.71 2.71 0 0 1 .77.46l.94-1.84a6 6 0 0 0-1.41-.54 5.35 5.35 0 0 0-1.4-.19 3.58 3.58 0 0 0-1.3.22 2.74 2.74 0 0 0-1 .6 2.8 2.8 0 0 0-.62.94 3.16 3.16 0 0 0-.22 1.22 2.62 2.62 0 0 0 .21 1.11 2.09 2.09 0 0 0 .55.72 2.77 2.77 0 0 0 .78.46 9.44 9.44 0 0 0 .89.32l.66.24a1.81 1.81 0 0 1 .44.24.76.76 0 0 1 .24.27 1 1 0 0 1 .07.36.84.84 0 0 1-.28.6 1.26 1.26 0 0 1-.86.26 2.52 2.52 0 0 1-1-.23 4.11 4.11 0 0 1-1.05-.69l-1 1.89a5.42 5.42 0 0 0 3.18 1 4.56 4.56 0 0 0 1.48-.22 3.35 3.35 0 0 0 1.1-.62 2.69 2.69 0 0 0 .69-1 3.4 3.4 0 0 0 .23-1.26 2.53 2.53 0 0 0-.53-1.67 3.67 3.67 0 0 0-1.7-.99zm6 3.53v-7.07h-2.35v9.05h5.17v-2z"/></g><g id="logo-notes"><path class="cls-1" d="M84.19 17.57a5.54 5.54 0 0 0-2-1.48 6.64 6.64 0 0 0-2.77-.53 7 7 0 0 0-2.67.47 5.93 5.93 0 0 0-2.25 1.81v-1.95h-5.4v15.39h5.43v-8.22a3.41 3.41 0 0 1 .73-2.35 2.7 2.7 0 0 1 2.12-.83 3 3 0 0 1 1 .15 2.06 2.06 0 0 1 .81.51 2.3 2.3 0 0 1 .58 1.13 8.28 8.28 0 0 1 .17 1.84v7.77h5.43V21.5a9.06 9.06 0 0 0-.24-2.19 4.27 4.27 0 0 0-.94-1.74zm20.08.08a9.1 9.1 0 0 0-2.94-1.71A11.21 11.21 0 0 0 94 16a9.12 9.12 0 0 0-3 1.68 7.85 7.85 0 0 0-1.92 2.58 7.47 7.47 0 0 0-.69 3.19 8.35 8.35 0 0 0 .69 3.44A7.9 7.9 0 0 0 91 29.54a8.47 8.47 0 0 0 2.9 1.71 10.81 10.81 0 0 0 3.66.6 11.26 11.26 0 0 0 3.73-.6 8.68 8.68 0 0 0 3-1.69 8.17 8.17 0 0 0 1.95-9.3 7.68 7.68 0 0 0-1.97-2.61zm-3.39 7.29a3.79 3.79 0 0 1-.75 1.12 3.3 3.3 0 0 1-1.11.75 3.47 3.47 0 0 1-1.36.27 3.52 3.52 0 0 1-1.37-.27 3.3 3.3 0 0 1-1.11-.75 3.79 3.79 0 0 1-.75-1.12 3.51 3.51 0 0 1-.28-1.43 3.23 3.23 0 0 1 .28-1.35 3.88 3.88 0 0 1 .75-1.11 3.3 3.3 0 0 1 1.11-.75 3.52 3.52 0 0 1 1.37-.3 3.47 3.47 0 0 1 1.34.3 3.3 3.3 0 0 1 1.11.75 3.84 3.84 0 0 1 .75 1.13 3.32 3.32 0 0 1 .29 1.36 3.44 3.44 0 0 1-.27 1.4zm15.2-13.67h-5.43v4.62h-1.8v4.53h1.8v10.86h5.43V20.42h3.09v-4.53h-3.09zm19.23 6.33a7.09 7.09 0 0 0-2.64-1.69 9.94 9.94 0 0 0-3.51-.59 10.18 10.18 0 0 0-3.56.59 7.54 7.54 0 0 0-2.68 1.66 7.31 7.31 0 0 0-1.71 2.63 9.48 9.48 0 0 0-.6 3.46 8.6 8.6 0 0 0 .63 3.36A7.41 7.41 0 0 0 123 29.6a8 8 0 0 0 2.78 1.67 10.44 10.44 0 0 0 3.57.58q6.36 0 7.95-5.28h-5.25A3 3 0 0 1 129.4 28q-3.3 0-3.3-3.51h11.43v-.57a10.72 10.72 0 0 0-.57-3.61 7.39 7.39 0 0 0-1.65-2.71zm-9.06 3.75a3 3 0 0 1 1-1.86 3.45 3.45 0 0 1 4.1 0 3.27 3.27 0 0 1 1.11 1.83zM152 23.11a6.24 6.24 0 0 0-3.36-1.61l-1.31-.3a2.86 2.86 0 0 1-.75-.27.77.77 0 0 1-.33-.31 1.1 1.1 0 0 1-.07-.44.92.92 0 0 1 .46-.81 2.23 2.23 0 0 1 1.22-.3 6.35 6.35 0 0 1 2.94.78l1.83-3.54a12.86 12.86 0 0 0-5-1 9.7 9.7 0 0 0-2.84.39 6.44 6.44 0 0 0-2.17 1.11 4.83 4.83 0 0 0-1.38 1.76 5.44 5.44 0 0 0-.48 2.32 3.76 3.76 0 0 0 1 2.78 7 7 0 0 0 3.53 1.51c.5.1.9.2 1.21.29a2.55 2.55 0 0 1 .71.3.79.79 0 0 1 .31.36 1.36 1.36 0 0 1 .08.49 1 1 0 0 1-.48.84 2.13 2.13 0 0 1-1.23.33 7.74 7.74 0 0 1-4.32-1.56l-2 3.84a12.07 12.07 0 0 0 6.15 1.77 10.31 10.31 0 0 0 3-.4 7.13 7.13 0 0 0 2.31-1.14 5.18 5.18 0 0 0 1.5-1.82 5.36 5.36 0 0 0 .54-2.43 4.08 4.08 0 0 0-1.07-2.94z"/></g><g id="logo-icon"><ellipse cx="21.48" cy="21.5" rx="21.48" ry="21.5" fill="url(#logo-gradient-1)"/><circle cx="49.46" cy="25.27" r="3" fill="url(#logo-gradient-2)"/><circle cx="57.96" cy="29.77" r="1.64" fill="url(#logo-gradient-3)"/><path d="M23.21 6.38l3.25 3.42-6.69 6.49L26.51 23l3.12-3.18L33 23.33c-1.08 1.06-2.21 2.14-3.31 3.26q-4.92 5-9.82 10h-.13l-3.22-3.43 6.69-6.49-6.78-6.76-3.26 3.39a9.24 9.24 0 0 0-.63-.86c-.85-.86-1.71-1.69-2.58-2.53v-.26a3.75 3.75 0 0 0 .49-.38q3.69-3.75 7.37-7.51 2.64-2.7 5.26-5.41z" fill="#fff"/></g></svg>